{"asset":{"version":"2.0","generator":"Blockbench 4.10.1 glTF exporter"},"scenes":[{"nodes":[1],"name":"blockbench_export"}],"scene":0,"nodes":[{"name":"cuboid","mesh":0},{"children":[0]}],"bufferViews":[{"buffer":0,"byteOffset":0,"byteLength":10176,"target":34962,"byteStride":12},{"buffer":0,"byteOffset":10176,"byteLength":10176,"target":34962,"byteStride":12},{"buffer":0,"byteOffset":20352,"byteLength":6784,"target":34962,"byteStride":8},{"buffer":0,"byteOffset":27136,"byteLength":600,"target":34963},{"buffer":0,"byteOffset":27736,"byteLength":936,"target":34963},{"buffer":0,"byteOffset":28672,"byteLength":72,"target":34963},{"buffer":0,"byteOffset":28744,"byteLength":864,"target":34963},{"buffer":0,"byteOffset":29608,"byteLength":72,"target":34963}],"buffers":[{"byteLength":29680,"uri":"data:application/octet-stream;base64,"}],"accessors":[{"bufferView":0,"componentType":5126,"count":848,"max":[1.3035253286361694,1.5625,4.40625],"min":[-1.3035253286361694,-0.2052413374185562,-1.625],"type":"VEC3"},{"bufferView":1,"componentType":5126,"count":848,"max":[1,1,1],"min":[-1,-1,-1],"type":"VEC3"},{"bufferView":2,"componentType":5126,"count":848,"max":[0.796875,0.875],"min":[0,0],"type":"VEC2"},{"bufferView":3,"componentType":5123,"count":300,"max":[199],"min":[0],"type":"SCALAR"},{"bufferView":4,"componentType":5123,"count":468,"max":[511],"min":[200],"type":"SCALAR"},{"bufferView":5,"componentType":5123,"count":36,"max":[535],"min":[512],"type":"SCALAR"},{"bufferView":6,"componentType":5123,"count":432,"max":[823],"min":[536],"type":"SCALAR"},{"bufferView":7,"componentType":5123,"count":36,"max":[847],"min":[824],"type":"SCALAR"}],"materials":[{"pbrMetallicRoughness":{"metallicFactor":0,"roughnessFactor":1,"baseColorTexture":{"index":0}},"alphaMode":"MASK","alphaCutoff":0.05,"doubleSided":true},{"pbrMetallicRoughness":{"metallicFactor":0,"roughnessFactor":1},"alphaMode":"MASK","alphaCutoff":0.05,"doubleSided":true}],"textures":[{"sampler":0,"source":0,"name":"SharkTexture.png"}],"samplers":[{"magFilter":9728,"minFilter":9728,"wrapS":33071,"wrapT":33071}],"images":[{"mimeType":"image/png","uri":"data:image/png;base64,"}],"meshes":[{"primitives":[{"mode":4,"attributes":{"POSITION":0,"NORMAL":1,"TEXCOORD_0":2},"indices":3,"material":0},{"mode":4,"attributes":{"POSITION":0,"NORMAL":1,"TEXCOORD_0":2},"indices":4,"material":1},{"mode":4,"attributes":{"POSITION":0,"NORMAL":1,"TEXCOORD_0":2},"indices":5,"material":0},{"mode":4,"attributes":{"POSITION":0,"NORMAL":1,"TEXCOORD_0":2},"indices":6,"material":1},{"mode":4,"attributes":{"POSITION":0,"NORMAL":1,"TEXCOORD_0":2},"indices":7,"material":0}]}]}